<svg id="visual"  preserveAspectRatio="none" viewBox="0 0 960 540" width="960" height="540" xmlns="http://www.w3.org/2000/svg" xmlns:xlink="http://www.w3.org/1999/xlink" version="1.1"><rect x="0" y="0" width="960" height="540" fill="#cecbc8"></rect><path d="M0 348L22.8 355.2C45.7 362.3 91.3 376.7 137 383.3C182.7 390 228.3 389 274 388.8C319.7 388.7 365.3 389.3 411.2 382.3C457 375.3 503 360.7 548.8 348.3C594.7 336 640.3 326 686 329.8C731.7 333.7 777.3 351.3 823 363.3C868.7 375.3 914.3 381.7 937.2 384.8L960 388L960 541L937.2 541C914.3 541 868.7 541 823 541C777.3 541 731.7 541 686 541C640.3 541 594.7 541 548.8 541C503 541 457 541 411.2 541C365.3 541 319.7 541 274 541C228.3 541 182.7 541 137 541C91.3 541 45.7 541 22.8 541L0 541Z" fill="#c62368"></path><path d="M0 361L22.8 362.2C45.7 363.3 91.3 365.7 137 375.5C182.7 385.3 228.3 402.7 274 407.8C319.7 413 365.3 406 411.2 397.8C457 389.7 503 380.3 548.8 381.2C594.7 382 640.3 393 686 399C731.7 405 777.3 406 823 406C868.7 406 914.3 405 937.2 404.5L960 404L960 541L937.2 541C914.3 541 868.7 541 823 541C777.3 541 731.7 541 686 541C640.3 541 594.7 541 548.8 541C503 541 457 541 411.2 541C365.3 541 319.7 541 274 541C228.3 541 182.7 541 137 541C91.3 541 45.7 541 22.8 541L0 541Z" fill="#d53867"></path><path d="M0 428L22.8 430.7C45.7 433.3 91.3 438.7 137 435.7C182.7 432.7 228.3 421.3 274 416C319.7 410.7 365.3 411.3 411.2 414.8C457 418.3 503 424.7 548.8 425.3C594.7 426 640.3 421 686 419.7C731.7 418.3 777.3 420.7 823 427.8C868.7 435 914.3 447 937.2 453L960 459L960 541L937.2 541C914.3 541 868.7 541 823 541C777.3 541 731.7 541 686 541C640.3 541 594.7 541 548.8 541C503 541 457 541 411.2 541C365.3 541 319.7 541 274 541C228.3 541 182.7 541 137 541C91.3 541 45.7 541 22.8 541L0 541Z" fill="#e34c67"></path><path d="M0 470L22.8 466.5C45.7 463 91.3 456 137 456.7C182.7 457.3 228.3 465.7 274 471.7C319.7 477.7 365.3 481.3 411.2 477C457 472.7 503 460.3 548.8 456C594.7 451.7 640.3 455.3 686 457.3C731.7 459.3 777.3 459.7 823 457.5C868.7 455.3 914.3 450.7 937.2 448.3L960 446L960 541L937.2 541C914.3 541 868.7 541 823 541C777.3 541 731.7 541 686 541C640.3 541 594.7 541 548.8 541C503 541 457 541 411.2 541C365.3 541 319.7 541 274 541C228.3 541 182.7 541 137 541C91.3 541 45.7 541 22.8 541L0 541Z" fill="#ef5f67"></path><path d="M0 484L22.8 488.8C45.7 493.7 91.3 503.3 137 505.2C182.7 507 228.3 501 274 495C319.7 489 365.3 483 411.2 485.5C457 488 503 499 548.8 500.3C594.7 501.7 640.3 493.3 686 491.5C731.7 489.7 777.3 494.3 823 497.8C868.7 501.3 914.3 503.7 937.2 504.8L960 506L960 541L937.2 541C914.3 541 868.7 541 823 541C777.3 541 731.7 541 686 541C640.3 541 594.7 541 548.8 541C503 541 457 541 411.2 541C365.3 541 319.7 541 274 541C228.3 541 182.7 541 137 541C91.3 541 45.7 541 22.8 541L0 541Z" fill="#fa7268"></path></svg>
